<svg xmlns="http://www.w3.org/2000/svg" viewBox="0 -0.5 100 100" shape-rendering="crispEdges">
<metadata>Made with Pixels to Svg https://codepen.io/shshaw/pen/XbxvNj</metadata>
<path stroke="#23b3a0" d="M41 22h4M53 22h5M39 23h2M58 23h2M38 24h1M60 24h2M62 25h1M35 26h1M49 26h1M63 26h2M65 27h1M46 28h7M66 28h1M44 29h3M52 29h1M67 29h1M31 30h1M44 30h1M47 30h5M67 30h2M30 31h1M42 31h2M45 31h2M52 31h1M68 31h2M29 32h1M41 32h2M44 32h2M69 32h1M29 33h1M39 33h1M41 33h1M43 33h2M69 33h2M28 34h1M38 34h1M40 34h2M43 34h1M70 34h1M28 35h1M38 35h1M40 35h1M42 35h1M70 35h2M27 36h2M37 36h2M40 36h1M42 36h1M70 36h2M27 37h1M36 37h2M42 37h1M71 37h1M26 38h2M35 38h3M42 38h1M61 38h1M71 38h1M27 39h1M35 39h3M42 39h1M56 39h1M58 39h1M60 39h2M71 39h1M35 40h4M40 40h2M55 40h1M57 40h2M60 40h2M35 41h5M54 41h2M57 41h1M59 41h3M35 42h5M43 42h2M53 42h2M56 42h2M59 42h4M72 42h2M25 43h2M35 43h4M42 43h3M52 43h2M55 43h2M58 43h5M72 43h2M24 44h3M36 44h3M43 44h2M47 44h5M54 44h1M57 44h5M72 44h2M24 45h3M37 45h3M52 45h3M57 45h5M72 45h2M24 46h3M38 46h3M46 46h7M55 46h7M72 46h2M24 47h3M40 47h2M44 47h2M53 47h8M72 47h2M24 48h3M41 48h18M72 48h3M24 49h3M44 49h14M71 49h4M24 50h3M46 50h10M72 50h3M24 51h2M69 54h3M26 55h2M69 55h5M25 56h4M69 56h5M27 57h2M68 57h4M27 58h3M67 58h5M28 59h2M67 59h4M28 60h3M66 60h5M29 61h3M65 61h5M29 62h4M66 62h4M30 63h2M67 63h2M35 65h1M62 65h2M34 66h3M60 66h4M35 67h3M57 67h4M37 68h6M53 68h6M39 69h20M44 70h11M35 73h1M63 73h1M35 74h3M61 74h3M37 75h1M39 75h1M59 75h1M61 75h1M38 76h1M40 76h2M57 76h2M60 76h1M36 77h1M41 77h1M46 77h1M52 77h1M57 77h1M62 77h1M37 78h2M45 78h2M52 78h2M60 78h2M39 79h1M45 79h2M52 79h2M59 79h1M37 80h1M41 80h1M45 80h2M52 80h2M57 80h1M61 80h1M38 81h1M41 81h2M45 81h2M52 81h2M56 81h2M60 81h1M38 82h1M40 82h1M42 82h1M46 82h1M52 82h1M56 82h1M58 82h1M60 82h1M38 83h1M40 83h1M58 83h1M60 83h1M40 84h1M42 84h1M56 84h1M58 84h1M41 85h1M57 85h1M39 86h1M59 86h1M39 87h2M58 87h2M40 88h2M57 88h2M40 90h2M57 90h2M41 91h1M57 91h1" />
<path stroke="#47ddc9" d="M37 24h1M35 25h2M63 25h1M33 26h2M65 26h1M32 27h2M66 27h1M32 28h1M30 29h2M68 29h1M29 30h2M69 30h1M29 31h1M28 32h1M70 32h1M28 33h1M27 34h1M71 34h1M27 35h1M25 36h2M72 36h2M25 37h2M72 37h2M25 38h1M74 42h1M24 43h1M74 43h1M74 44h1M74 45h1M74 46h1M74 47h1M27 49h1M27 50h1M28 55h2M29 56h1M29 57h2M30 58h2M30 59h2M31 60h2M32 61h2M64 66h1M61 67h3M59 68h3M59 69h1M39 70h5M55 70h5M43 71h13" />
<path stroke="#ece671" d="M37 25h2M60 25h2M36 26h1M62 26h1M34 27h3M62 27h3M33 28h3M63 28h3M32 29h3M64 29h3M32 30h1M66 30h1M31 31h2M66 31h2M30 32h1M68 32h1M30 33h1M68 33h1M29 34h1M69 34h1M29 35h1M69 35h1M29 36h1M69 36h1M28 37h2M69 37h2M28 38h1M70 38h1M28 39h1M70 39h1M28 40h1M70 40h1M28 41h1M70 41h1M28 42h1M70 42h1M28 43h1M70 43h1M28 44h1M70 44h1M28 45h1M70 45h1M28 46h1M70 46h1M28 47h2M69 47h2M29 48h1M69 48h1M29 49h1M69 49h1M29 50h1M30 51h1M68 51h1M30 52h1M31 53h2M66 53h2M31 54h2M66 54h2M31 55h4M64 55h4M32 56h4M63 56h4M33 57h4M62 57h4M33 58h4M62 58h4M34 59h5M60 59h5M35 60h4M60 60h4M37 61h4M58 61h4M38 62h7M54 62h7M41 63h4M48 63h2M53 63h5M43 64h2M48 64h2M53 64h3M48 65h1M48 66h1M49 76h1M48 77h3M48 78h2M49 79h1" />
<path stroke="#dff095" d="M45 25h6M42 26h2M40 27h1M39 28h1M38 29h1M37 30h1M36 31h1M59 33h1M51 34h1M50 35h3M51 36h1M33 37h1M40 37h1M33 38h1M33 39h1M48 39h1M33 40h1M33 41h1M33 42h1M33 43h1M41 43h1M33 44h1M41 44h2M42 45h2M56 45h1" />
<path stroke="#fbf236" d="M51 25h2M44 26h1M53 26h3M41 27h1M56 27h2M40 28h1M57 28h2M39 29h1M42 29h2M58 29h2M38 30h1M42 30h2M59 30h2M37 31h1M61 31h1M35 32h2M62 32h1M35 33h1M58 33h1M62 33h1M34 34h2M58 34h2M62 34h2M34 35h2M62 35h2M34 36h1M63 36h1M34 37h1M38 37h2M63 37h1M34 38h1M38 38h3M63 38h1M34 39h1M38 39h3M63 39h1M34 40h1M63 40h1M34 41h1M63 41h1M34 42h1M63 42h1M34 43h1M63 43h1M35 44h1M55 44h2M62 44h1M35 45h1M55 45h1M62 45h1M35 46h1M62 46h1M36 47h1M61 47h1M37 48h1M60 48h1M37 49h2M59 49h2M38 50h2M58 50h2M40 51h1M57 51h2M40 52h2M56 52h2M41 53h4M54 53h3M43 54h5M50 54h5" />
<path stroke="#0a7264" d="M45 26h4M42 27h4M41 28h3M40 29h2M39 30h3M38 31h3M37 32h3M36 33h3M36 34h2M36 35h2M35 36h2M35 37h1" />
<path stroke="#0e9886" d="M50 26h3M56 28h1M56 29h2M58 30h1M61 36h2M62 37h1M62 38h1M62 39h1M62 40h1M62 41h1M36 45h1M36 46h2M37 47h3M38 48h3M59 48h1M39 49h5M58 49h1M40 50h6M56 50h2M41 51h16M42 52h14M45 53h3M50 53h4" />
<path stroke="#bfe133" d="M46 27h7M44 28h2M53 28h2M47 29h5M55 29h1M45 30h2M52 30h2M56 30h1M41 31h1M44 31h1M54 31h1M40 32h1M43 32h1M55 32h1M58 32h1M40 33h1M42 33h1M39 34h1M42 34h1M39 35h1M41 35h1M59 35h1M39 36h1M41 36h1M41 37h1M57 37h1M59 37h1M41 38h1M57 38h1M59 38h1M41 39h1M57 39h1M59 39h1M39 40h1M56 40h1M59 40h1M40 41h1M56 41h1M58 41h1M55 42h1M58 42h1M54 43h1M57 43h1M52 44h2M46 45h6M45 46h1M53 46h2M46 47h7" />
<path stroke="#159484" d="M53 27h3M55 28h1M53 29h2M54 30h2M57 30h1M53 31h1M55 31h2M53 32h2M54 33h2M55 34h1M56 36h1M56 37h1M58 37h1M60 37h2M56 38h1M58 38h1M60 38h1" />
<path stroke="#e4dc37" d="M47 31h5M46 32h7M45 33h9M44 34h7M52 34h3M43 35h7M53 35h3M43 36h8M52 36h4M44 37h12M45 38h11M46 39h2M49 39h7M47 40h8M50 41h1" />
<path stroke="#c2bb2c" d="M57 31h4M56 32h2M60 32h2M56 33h1M61 33h1M56 34h1M61 34h1M56 35h2M60 35h2M57 36h4M42 40h2M41 41h4M40 42h3M45 42h1M39 43h2M45 43h2M39 44h2M45 44h1M40 45h2M44 45h1M42 46h2" />
<path stroke="#0e7265" d="M59 32h1M57 33h1M60 33h1M57 34h1M60 34h1M58 35h1" />
<path stroke="#7c9415" d="M43 37h1M43 38h2M43 39h2M44 40h2M45 41h2M46 42h2M47 43h2" />
<path stroke="#d5cd1a" d="M64 37h1M64 38h1M64 39h1M27 40h1M64 40h1M64 41h1M71 41h1M27 42h1M64 42h1M71 42h1M27 43h1M64 43h1M71 43h1M27 44h1M34 44h1M63 44h2M71 44h1M27 45h1M34 45h1M63 45h1M71 45h1M27 46h1M34 46h1M63 46h1M71 46h1M27 47h1M34 47h2M62 47h2M71 47h1M27 48h2M35 48h2M61 48h2M70 48h2M28 49h1M35 49h2M61 49h2M70 49h1M28 50h1M36 50h2M60 50h2M29 51h1M37 51h3M59 51h2M29 52h1M38 52h2M58 52h2M30 53h1M39 53h2M57 53h2M30 54h1M40 54h3M55 54h3M68 54h1M30 55h1M42 55h5M51 55h5M68 55h1M30 56h2M45 56h2M51 56h2M67 56h2M31 57h2M66 57h2M32 58h1M66 58h1M32 59h2M65 59h2M33 60h2M64 60h2M35 61h2M62 61h2M36 62h2M61 62h2M37 63h4M58 63h4M40 64h3M56 64h3M42 65h3M49 65h1M53 65h4M49 66h1M53 66h1" />
<path stroke="#d1ca33" d="M72 38h4M23 39h4M72 39h1M75 39h1M23 40h1M26 40h1M71 40h2M75 40h1M23 41h1M26 41h2M69 50h3M26 51h3M69 51h2M73 51h2M23 52h2M27 52h2M69 52h2M73 52h2M23 53h2M27 53h2M68 53h1M73 53h1M24 54h1M29 54h1M34 61h1M64 61h1M33 62h3M63 62h3M32 63h1M35 63h1M63 63h1M66 63h1M31 64h2M66 64h2M33 65h1M65 65h2" />
<path stroke="#b8dd1b" d="M45 39h1M46 40h1M47 41h3M51 41h3M48 42h5M49 43h3" />
<path stroke="#d133cb" d="M73 39h1M25 40h1M73 40h2M24 41h2M71 51h1M26 52h1M71 52h2M25 53h2M34 63h1M64 63h1M33 64h2M64 64h2" />
<path stroke="#e470e0" d="M74 39h1M24 40h1M72 51h1M25 52h1M33 63h1M65 63h1" />
<path stroke="#767225" d="M72 41h4M23 42h4M68 52h1M29 53h1M69 53h4M25 54h4M72 54h2M24 55h2M36 63h1M62 63h1M35 64h1M63 64h1M32 65h1M34 65h1M64 65h1M33 66h1M65 66h1" />
<path stroke="#7e7919" d="M46 44h1M45 45h1M41 46h1M44 46h1M42 47h2" />
<path stroke="#d1c927" d="M48 53h1M48 54h1M48 55h1M48 56h1" />
<path stroke="#e8e15c" d="M49 53h1M49 54h1M49 55h2M49 56h2M49 57h2M49 58h1" />
<path stroke="#a49d1d" d="M47 55h1M47 56h1M47 57h2M48 58h1" />
<path stroke="#cec746" d="M45 61h1M52 61h1M45 62h3M50 62h3M45 63h3M50 63h3M46 64h2M50 64h2" />
<path stroke="#145048" d="M36 64h4M59 64h4M36 65h6M57 65h5M37 66h8M54 66h6M38 67h7M48 67h2M53 67h4M43 68h4M48 68h2M51 68h2" />
<path stroke="#989442" d="M45 64h1M52 64h1M45 65h3M50 65h3M45 66h3M50 66h3M45 67h3M50 67h3M47 68h1M50 68h1" />
<path stroke="#1b7e71" d="M33 71h2M64 71h2M33 72h4M62 72h4M34 73h1M36 73h3M60 73h3M64 73h1M34 74h1M38 74h3M58 74h3M64 74h1M34 75h2M38 75h1M40 75h3M48 75h3M56 75h3M60 75h1M63 75h2M35 76h1M39 76h1M42 76h1M47 76h2M50 76h2M56 76h1M59 76h1M63 76h1M35 77h1M39 77h1M42 77h1M47 77h1M51 77h1M56 77h1M59 77h1M63 77h1M35 78h2M39 78h1M42 78h1M47 78h1M51 78h1M56 78h1M59 78h1M62 78h2M36 79h1M40 79h1M42 79h1M47 79h1M51 79h1M56 79h1M58 79h1M62 79h1M36 80h1M40 80h1M42 80h2M47 80h1M51 80h1M55 80h2M58 80h1M62 80h1M36 81h2M40 81h1M43 81h1M47 81h2M50 81h2M55 81h1M58 81h1M61 81h2M37 82h1M39 82h1M41 82h1M43 82h1M48 82h3M55 82h1M57 82h1M59 82h1M61 82h1M37 83h1M39 83h1M41 83h1M43 83h1M55 83h1M57 83h1M59 83h1M61 83h1M37 84h2M41 84h1M43 84h1M55 84h1M57 84h1M60 84h2M37 85h2M42 85h2M55 85h2M60 85h2M38 86h1M42 86h2M55 86h2M60 86h1M38 87h1M42 87h1M56 87h1M60 87h1M38 88h2M42 88h1M56 88h1M59 88h2M39 89h4M56 89h4M39 90h1M42 90h1M56 90h1M59 90h1M39 91h2M42 91h1M56 91h1M58 91h2M40 92h3M56 92h3M40 93h2M57 93h2M40 94h2M57 94h2M41 95h1M57 95h1M41 96h1M57 96h1" />
<path stroke="#7bbab2" d="M36 75h1M62 75h1M36 76h2M61 76h2M37 77h2M40 77h1M58 77h1M60 77h2M40 78h2M57 78h2M37 79h2M41 79h1M57 79h1M60 79h2M38 80h2M59 80h2M39 81h1M59 81h1M42 83h1M56 83h1M39 84h1M59 84h1M39 85h2M58 85h2M40 86h2M57 86h2M41 87h1M57 87h1" />
<path stroke="#57d1c1" d="M45 75h3M51 75h3M45 76h2M52 76h2M45 77h1M53 77h1M47 82h1M51 82h1M47 83h5M48 84h3M49 85h1" />
<path stroke="#f0eb88" d="M50 78h1M50 79h1M50 80h1" />
<path stroke="#beb72b" d="M48 79h1M48 80h2M49 81h1" />
</svg>