<svg xmlns="http://www.w3.org/2000/svg" viewBox="0 -0.5 100 100" shape-rendering="crispEdges">
<metadata>Made with Pixels to Svg https://codepen.io/shshaw/pen/XbxvNj</metadata>
<path stroke="#132385" d="M0 0h100M0 1h100M0 2h100M0 3h58M68 3h32M0 4h58M68 4h32M0 5h40M45 5h8M73 5h27M0 6h20M23 6h17M45 6h8M73 6h18M96 6h4M0 7h20M23 7h17M45 7h8M73 7h18M96 7h4M0 8h20M23 8h17M45 8h8M73 8h6M83 8h8M96 8h4M0 9h40M45 9h8M73 9h6M83 9h8M96 9h4M0 10h51M75 10h4M83 10h8M96 10h4M0 11h51M75 11h4M83 11h17M0 12h34M40 12h11M75 12h25M0 13h34M40 13h11M75 13h25M0 14h34M40 14h11M75 14h25M0 15h34M40 15h11M75 15h25M0 16h3M8 16h26M40 16h11M75 16h25M0 17h3M8 17h26M40 17h13M73 17h27M0 18h3M8 18h37M47 18h2M50 18h3M73 18h2M79 18h16M99 18h1M0 19h3M8 19h37M47 19h2M51 19h2M73 19h2M79 19h16M99 19h1M0 20h3M8 20h41M51 20h2M73 20h2M79 20h16M99 20h1M0 21h19M22 21h26M51 21h2M73 21h2M79 21h16M99 21h1M0 22h19M22 22h24M54 22h4M68 22h32M0 23h19M22 23h23M55 23h3M68 23h32M0 24h45M55 24h45M0 25h44M57 25h43M0 26h42M58 26h42M0 27h40M60 27h40M0 28h39M62 28h38M0 29h39M62 29h38M1 30h36M63 30h37M3 31h33M64 31h36M5 32h30M66 32h34M7 33h26M67 33h33M9 34h24M67 34h33M12 35h20M68 35h32M14 36h17M71 36h29M18 37h10M72 37h28M20 38h7M73 38h25M23 39h4M73 39h23M75 40h20M76 41h17M77 42h13M77 43h8M78 44h2" />
<path stroke="#ffffff" d="M58 3h10M58 4h10M40 5h5M53 5h20M20 6h3M40 6h5M53 6h20M91 6h5M20 7h3M40 7h5M53 7h20M91 7h5M20 8h3M40 8h5M53 8h20M79 8h4M91 8h5M40 9h5M53 9h20M79 9h4M91 9h5M51 10h24M79 10h4M91 10h5M51 11h24M79 11h4M34 12h6M51 12h24M34 13h6M51 13h24M34 14h6M51 14h24M34 15h6M51 15h24M3 16h5M34 16h6M51 16h24M3 17h5M34 17h6M53 17h20M3 18h5M45 18h2M53 18h20M75 18h4M95 18h4M3 19h5M45 19h2M53 19h20M75 19h4M95 19h4M3 20h5M53 20h20M75 20h4M95 20h4M19 21h3M53 21h20M75 21h4M95 21h4M19 22h3M58 22h10M19 23h3M58 23h10" />
<path stroke="#4232bd" d="M49 18h1M49 19h2M49 20h2M48 21h3M46 22h8M45 23h10M45 24h10M44 25h13M42 26h16M40 27h20M39 28h23M39 29h23M37 30h13M51 30h12M36 31h14M51 31h13M35 32h14M51 32h15M33 33h14M53 33h14M33 34h13M53 34h14M32 35h14M53 35h15M31 36h14M54 36h17M28 37h16M54 37h18M27 38h15M55 38h18M27 39h14M55 39h18M27 40h14M55 40h20M31 41h9M57 41h19M36 42h2M58 42h19M58 43h19M58 44h20" />
<path stroke="#242491" d="M0 30h1M0 31h3M0 32h5M0 33h7M0 34h9M0 35h12M0 36h14M0 37h18M0 38h20M98 38h2M0 39h23M96 39h4M0 40h27M95 40h5M0 41h26M93 41h7M0 42h25M90 42h10M0 43h25M85 43h15M0 44h23M80 44h20M0 45h23M78 45h22M0 46h22M80 46h20M0 47h22M81 47h19M0 48h22M81 48h19M0 49h21M81 49h19M0 50h21M82 50h18M0 51h19M82 51h18M0 52h19M82 52h18M0 53h19M82 53h18M0 54h19M83 54h17M0 55h18M83 55h17M0 56h18M83 56h17M0 57h18M83 57h17M0 58h18M83 58h17M0 59h18M85 59h15M0 60h18M85 60h15M0 61h18M85 61h15M0 62h18M85 62h15M0 63h18M85 63h15M0 64h18M85 64h15M0 65h18M85 65h15M0 66h18M90 66h10M0 67h17M97 67h3M0 68h11M0 69h5" />
<path stroke="#df7126" d="M50 30h1M50 31h1M49 32h2M47 33h6M46 34h7M46 35h7M45 36h9M44 37h5M50 37h4M42 38h5M49 38h6M41 39h6M49 39h6M41 40h6M49 40h6M40 41h6M49 41h8M38 42h8M50 42h8M37 43h8M50 43h8M37 44h8M50 44h8M36 45h9M51 45h8M34 46h6M42 46h3M51 46h9M34 47h6M42 47h4M51 47h11M34 48h6M42 48h4M51 48h11M34 49h6M44 49h2M50 49h5M57 49h6M34 50h6M44 50h11M58 50h5M34 51h6M45 51h12M58 51h6M34 52h6M45 52h12M58 52h6M36 53h4M45 53h4M53 53h4M59 53h5M37 54h4M45 54h4M54 54h3M59 54h7M36 55h5M46 55h3M54 55h3M60 55h2M63 55h3M34 56h8M46 56h3M54 56h3M60 56h3M64 56h3M34 57h8M46 57h3M54 57h3M60 57h3M64 57h3M33 58h5M40 58h2M46 58h3M53 58h4M60 58h3M64 58h3M33 59h5M41 59h8M53 59h2M59 59h3M64 59h3M32 60h6M42 60h7M53 60h1M59 60h3M64 60h3M32 61h6M42 61h7M53 61h1M59 61h3M64 61h3M32 62h6M45 62h5M53 62h1M59 62h3M64 62h3M32 63h2M36 63h2M46 63h4M51 63h4M59 63h1M63 63h4M32 64h2M36 64h4M49 64h6M58 64h2M62 64h2M32 65h2M36 65h4M49 65h6M58 65h2M62 65h2M32 66h2M36 66h4M50 66h5M57 66h3M62 66h1M33 67h3M37 67h4M51 67h4M57 67h6M33 68h3M38 68h4M54 68h9M34 69h3M40 69h5M54 69h8M34 70h3M40 70h5M54 70h8M34 71h4M40 71h6M53 71h7M36 72h4M42 72h17M38 73h4M45 73h13M38 74h4M45 74h13M40 75h2M46 75h5M58 75h1M49 76h1" />
<path stroke="#d5a41a" d="M49 37h1M47 38h2M47 39h2M47 40h2M46 41h3M46 42h4M45 43h5M45 44h5M45 45h6M40 46h2M45 46h6M40 47h2M46 47h5M40 48h2M46 48h5M40 49h4M46 49h4M55 49h2M40 50h4M55 50h3M40 51h5M57 51h1M40 52h5M57 52h1M40 53h5M49 53h4M57 53h2M41 54h4M49 54h5M57 54h2M41 55h5M49 55h5M57 55h3M62 55h1M42 56h4M49 56h5M57 56h3M63 56h1M42 57h4M49 57h5M57 57h3M63 57h1M38 58h2M42 58h4M49 58h4M57 58h3M63 58h1M38 59h3M49 59h4M55 59h4M62 59h2M38 60h4M49 60h4M54 60h5M62 60h2M38 61h4M49 61h4M54 61h5M62 61h2M38 62h7M50 62h3M54 62h5M62 62h2M34 63h2M38 63h8M50 63h1M55 63h4M60 63h3M34 64h2M40 64h9M55 64h3M60 64h2M64 64h2M34 65h2M40 65h9M55 65h3M60 65h2M64 65h2M34 66h2M40 66h10M55 66h2M60 66h2M63 66h3M36 67h1M41 67h10M55 67h2M63 67h1M36 68h2M42 68h12M63 68h1M37 69h3M45 69h9M62 69h1M37 70h3M45 70h9M62 70h1M38 71h2M46 71h7M60 71h3M40 72h2M59 72h3M42 73h3M58 73h2M42 74h3M58 74h2M42 75h4M51 75h7M45 76h4M50 76h4" />
<path stroke="#7d33c3" d="M26 41h5M25 42h11M25 43h12M23 44h14M23 45h13M59 45h19M22 46h12M60 46h20M22 47h12M62 47h19M22 48h12M62 48h19M21 49h13M63 49h18M21 50h13M63 50h19M19 51h15M64 51h18M19 52h15M64 52h18M19 53h17M64 53h18M19 54h18M66 54h17M18 55h18M66 55h17M18 56h16M67 56h16M18 57h16M67 57h16M18 58h15M67 58h16M18 59h15M67 59h18M18 60h14M67 60h18M18 61h14M67 61h18M18 62h14M67 62h18M18 63h14M67 63h18M18 64h14M75 64h10M18 65h14M84 65h1M18 66h8" />
<path stroke="#3018a3" d="M66 64h9M66 65h18M26 66h6M66 66h19M18 67h15M64 67h21M18 68h15M64 68h21M18 69h16M63 69h22M18 70h16M63 70h20M18 71h16M63 71h20M18 72h18M62 72h21M19 73h16M66 73h17M19 74h16M66 74h17M19 75h7M73 75h10M19 76h2M77 76h6M19 77h1M77 77h5M77 78h5M77 79h4M77 80h4M77 81h4M77 82h3M77 83h1M72 84h1M75 84h2M29 85h5M72 85h3M26 86h9M72 86h3M28 87h7M72 87h1M31 88h4M61 88h1M36 89h1M39 89h2M61 89h4M36 90h6M47 90h3M58 90h7M40 91h26M48 92h12" />
<path stroke="#0e1154" d="M85 66h5M17 67h1M85 67h12M11 68h7M85 68h15M5 69h13M85 69h15M0 70h18M83 70h17M0 71h18M83 71h17M0 72h18M83 72h17M0 73h19M83 73h17M0 74h19M83 74h17M0 75h19M83 75h17M0 76h19M83 76h17M0 77h19M82 77h18M0 78h20M82 78h18M0 79h20M81 79h19M0 80h20M81 80h19M0 81h20M81 81h19M0 82h20M80 82h20M0 83h20M78 83h22M0 84h20M77 84h23M0 85h21M75 85h25M0 86h22M25 86h1M75 86h25M0 87h22M25 87h3M73 87h27M0 88h31M72 88h28M0 89h36M70 89h30M0 90h36M69 90h31M0 91h40M66 91h34M0 92h48M60 92h40M0 93h100M0 94h100M0 95h100M0 96h100M0 97h100M0 98h100M0 99h100" />
<path stroke="#ec7e6c" d="M35 73h3M35 74h3" />
<path stroke="#5b261d" d="M60 73h1M60 74h1" />
<path stroke="#852110" d="M61 73h5M61 74h5M62 75h11M60 76h1M64 76h10M55 77h7M64 77h10M55 78h7M64 78h10M46 79h11M68 79h5M40 80h13M70 80h3M39 81h12M39 82h9M39 83h9M39 84h8M40 85h2" />
<path stroke="#631a0e" d="M26 75h4M22 76h5" />
<path stroke="#a42b17" d="M30 75h10M27 76h18M25 77h17M25 78h17M25 79h14M25 80h10M26 81h5M26 82h3M26 83h3" />
<path stroke="#dd4c32" d="M59 75h2M54 76h6M42 77h13M42 78h13M39 79h7M38 80h2" />
<path stroke="#541004" d="M61 75h1M61 76h3M62 77h2M62 78h2M57 79h8M53 80h7M31 81h4M29 82h6M29 83h6M26 84h8M25 85h4M40 86h2M40 87h1M40 88h1" />
<path stroke="#310e08" d="M21 76h1M74 76h3M20 77h5M74 77h3M20 78h5M74 78h3M20 79h5M73 79h4M20 80h5M35 80h3M73 80h4M20 81h6M35 81h4M73 81h4M20 82h6M35 82h4M69 82h3M73 82h4M20 83h6M35 83h4M69 83h3M73 83h4M20 84h6M34 84h5M68 84h4M73 84h2M21 85h4M34 85h6M66 85h6M22 86h3M35 86h5M65 86h7M22 87h3M35 87h5M65 87h7M35 88h5M65 88h7M37 89h2M65 89h5M65 90h4" />
<path stroke="#721100" d="M65 79h3M66 80h4M58 81h2M68 81h5M72 82h1M72 83h1M63 84h1M63 85h1M63 86h2M63 87h2M62 88h3" />
<path stroke="#5b170b" d="M60 80h6M60 81h8M61 82h8M61 83h8M64 84h4M64 85h2" />
<path stroke="#a4b2ba" d="M51 81h6M48 82h3M48 83h3" />
<path stroke="#9badb7" d="M57 81h1M47 84h3" />
<path stroke="#728691" d="M51 82h9M51 83h9M50 84h4M47 85h4M47 86h4M50 87h1" />
<path stroke="#6b7981" d="M60 82h1M60 83h1M54 84h9M51 85h10M51 86h10M42 87h3M51 87h9M44 88h3M51 88h7M44 89h3M51 89h7" />
<path stroke="#93a8b3" d="M42 85h5M42 86h5M41 87h1" />
<path stroke="#4e5c63" d="M61 85h2M61 86h2M60 87h3M58 88h3M58 89h3M54 90h4" />
<path stroke="#273035" d="M45 87h5M47 88h4M47 89h4M50 90h1" />
<path stroke="#3b464c" d="M41 88h3M41 89h3M42 90h5" />
<path stroke="#5c6063" d="M51 90h3" />
</svg>