<svg xmlns="http://www.w3.org/2000/svg" viewBox="0 -0.5 100 100" shape-rendering="crispEdges">
<metadata>Made with Pixels to Svg https://codepen.io/shshaw/pen/XbxvNj</metadata>
<path stroke="#242424" d="M32 30h32M31 31h34M30 32h2M64 32h2M30 33h2M64 33h2M30 34h2M64 34h2M30 35h2M64 35h2M30 36h2M64 36h2M30 37h2M64 37h2M30 38h2M64 38h2M30 39h2M64 39h2M30 40h2M64 40h2M30 41h2M64 41h2M30 42h2M64 42h2M30 43h2M64 43h2M30 44h2M64 44h2M30 45h2M64 45h2M30 46h2M64 46h2M30 47h2M64 47h2M30 48h2M64 48h2M30 49h2M64 49h2M30 50h2M64 50h2M30 51h2M64 51h2M30 52h2M64 52h2M30 53h2M64 53h2M30 54h2M64 54h2M30 55h2M64 55h2M30 56h2M64 56h2M30 57h2M64 57h2M30 58h2M64 58h2M30 59h2M64 59h2M30 60h2M64 60h2M30 61h2M64 61h2M30 62h2M64 62h2M30 63h2M64 63h2M31 64h34M32 65h32" />
<path stroke="#c7c2c9" d="M32 32h6M43 32h10M58 32h6M32 33h6M43 33h10M58 33h6M32 34h5M43 34h1M52 34h1M59 34h5M32 35h3M61 35h3M32 36h3M61 36h3M32 37h2M62 37h2M32 43h4M60 43h4M32 44h2M62 44h2M32 45h2M62 45h2M32 46h2M62 46h2M32 47h2M62 47h2M32 48h2M62 48h2M32 49h2M62 49h2M32 50h2M62 50h2M32 51h2M62 51h2M32 52h4M60 52h4M32 58h2M62 58h2M32 59h3M61 59h3M32 60h3M61 60h3M32 61h5M43 61h1M52 61h1M59 61h5M32 62h6M43 62h10M58 62h6M32 63h6M43 63h10M58 63h6" />
<path stroke="#9e9e9e" d="M38 32h1M57 32h1M38 33h1M57 33h1M37 34h2M44 34h8M57 34h2M35 35h3M43 35h2M51 35h2M58 35h3M35 36h1M60 36h1M34 37h2M60 37h2M32 38h3M61 38h3M34 44h2M60 44h2M34 45h1M61 45h1M34 46h1M61 46h1M34 47h1M61 47h1M34 48h1M61 48h1M34 49h1M61 49h1M34 50h1M61 50h1M34 51h2M60 51h2M32 57h3M61 57h3M34 58h2M60 58h2M35 59h1M60 59h1M35 60h3M43 60h2M51 60h2M58 60h3M37 61h2M44 61h8M57 61h2M38 62h1M57 62h1M38 63h1M57 63h1" />
<path stroke="#5a5a5a" d="M39 32h1M42 32h1M53 32h1M56 32h1M39 33h1M42 33h1M53 33h1M56 33h1M39 34h1M42 34h1M53 34h1M56 34h1M42 35h1M53 35h1M32 39h3M61 39h3M32 42h4M60 42h4M32 53h4M60 53h4M32 56h3M61 56h3M42 60h1M53 60h1M39 61h1M42 61h1M53 61h1M56 61h1M39 62h1M42 62h1M53 62h1M56 62h1M39 63h1M42 63h1M53 63h1M56 63h1" />
<path stroke="#888888" d="M40 32h2M54 32h2M40 33h2M54 33h2M40 34h2M54 34h2M38 35h4M45 35h6M54 35h4M36 36h11M49 36h11M36 37h11M49 37h11M35 38h12M49 38h12M35 39h10M51 39h10M32 40h11M53 40h11M32 41h10M54 41h10M36 42h5M55 42h5M36 43h4M56 43h4M36 44h4M56 44h4M35 45h4M57 45h4M35 46h4M57 46h4M35 47h1M60 47h1M35 48h1M60 48h1M35 49h4M57 49h4M35 50h4M57 50h4M36 51h4M56 51h4M36 52h4M56 52h4M36 53h5M55 53h5M32 54h10M54 54h10M32 55h11M53 55h11M35 56h10M51 56h10M35 57h12M49 57h12M36 58h11M49 58h11M36 59h11M49 59h11M38 60h4M45 60h6M54 60h4M40 61h2M54 61h2M40 62h2M54 62h2M40 63h2M54 63h2" />
<path stroke="#ffffff" d="M47 36h2M47 37h2M47 38h2M36 47h3M57 47h3M36 48h3M57 48h3M47 57h2M47 58h2M47 59h2" />
<path stroke="#e96363" d="M45 39h6M43 40h2M51 40h2M42 41h1M53 41h1M41 42h1M54 42h1M40 43h1M55 43h1M40 44h1M55 44h1M39 45h1M56 45h1M39 46h1M56 46h1M39 47h1M56 47h1M39 48h1M56 48h1M39 49h1M56 49h1M39 50h1M56 50h1M40 51h1M55 51h1M40 52h1M55 52h1M41 53h1M54 53h1M42 54h1M53 54h1M43 55h2M51 55h2M45 56h6" />
<path stroke="#f77ccf" d="M45 40h1M43 41h2M42 42h2M41 43h2M41 44h1M40 45h2M40 46h1M40 47h1M40 48h1M40 49h1M40 50h1" />
<path stroke="#ffa7ff" d="M46 40h5M45 41h8M44 42h1M51 42h3M43 43h1M52 43h3M42 44h1M53 44h2M55 45h1M41 46h1M55 46h1M41 47h1M55 47h1M41 48h1M55 48h1M41 49h1M55 49h1M41 50h1M55 50h1M41 51h2M41 52h3M54 52h1M42 53h3M53 53h1M43 54h2M51 54h2M45 55h6" />
<path stroke="#ededed" d="M45 42h6M44 43h8M43 44h10M42 45h12M42 46h3M47 46h2M52 46h2M42 47h2M53 47h1M42 48h2M53 48h1M42 49h3M52 49h2M42 50h4M51 50h3M43 51h4M49 51h4M44 52h8M45 53h6" />
<path stroke="#c6bac2" d="M54 45h1M54 46h1M54 47h1M54 48h1M54 49h1M54 50h1" />
<path stroke="#df78be" d="M45 46h2M49 46h2M44 47h8M44 48h2M50 48h2M45 49h2M49 49h2M46 50h4M47 51h2" />
<path stroke="#e2a9d0" d="M51 46h1M52 47h1M52 48h1M51 49h1M50 50h1" />
<path stroke="#ffbeff" d="M46 48h4M47 49h2" />
<path stroke="#857680" d="M53 51h2M52 52h2M51 53h2M45 54h6" />
</svg>